<svg id="Слой_1" data-name="Слой 1" xmlns="http://www.w3.org/2000/svg" viewBox="0 0 184 40">
    <defs>
        <style>.cls-1{fill:#182e5c;}</style>
    </defs>
    <title>logo_gazprombank</title>
    <path class="cls-1"
          d="M19.43,0C8.71,0,0,9,0,20S8.71,40,19.43,40s19.43-9,19.43-20S30.14,0,19.43,0Zm0,39.31C9.08,39.31.67,30.65.67,20S9.08.69,19.43.69,38.18,9.35,38.18,20,29.77,39.31,19.43,39.31Z"/>
    <path class="cls-1"
          d="M31.55,13a2.48,2.48,0,0,0-.19-1.45,6.42,6.42,0,0,0-2.83-2.35A2.85,2.85,0,0,0,28,8.11a11.16,11.16,0,0,0-7.5-2.88,17.06,17.06,0,0,0-7.37,1.4,14.58,14.58,0,0,0-2,1.15c4.78-2.16,10.6-2,13.72-.58,1,.45,1.65.73,1.92,1.3a21.08,21.08,0,0,0-7.34-1A27.57,27.57,0,0,0,8.48,10.35l-.85,1.1c2.81-1.71,8.08-2.83,11-2.91a21.54,21.54,0,0,1,8.1,1.11,1.67,1.67,0,0,1-.93,1.22c-9.3-1.65-14.79.3-19.76,3.65l-.38,1.1a24.72,24.72,0,0,1,18.89-3.82c-2.35.84-5.16,1-7.5,1.58a46.93,46.93,0,0,0-5.75,1.53C8.59,15.83,7,16.76,6,18a3.79,3.79,0,0,0-.93,1.93,3,3,0,0,0,.11,1.17,3.3,3.3,0,0,0,.64,1,2.09,2.09,0,0,0-.14,2.14A4.4,4.4,0,0,0,6.9,25.36a2.67,2.67,0,0,0,.06,2,5.48,5.48,0,0,0,2.25,2,3.39,3.39,0,0,0,1,1.85,13.1,13.1,0,0,0,8.4,3.53,13.34,13.34,0,0,0,6.89-1.31l1.13-.61a19,19,0,0,1-7.87,1C14.84,33.56,11.37,31,11,30.2a4.07,4.07,0,0,0,.46.23c4.54,2.26,10.4,3.47,17.91.34l.62-.61c-6.81,2.18-12.8,2.1-19.19-1.34a1.26,1.26,0,0,1,.5-.84,22.75,22.75,0,0,0,5.12,1.75,30.84,30.84,0,0,0,6.9.43,25.43,25.43,0,0,0,8.31-2.24c.18-.17.27-.46.45-.64a30.15,30.15,0,0,1-11.26,1.93,21.57,21.57,0,0,1-8.32-2,12.34,12.34,0,0,1,1.88-.66,25.87,25.87,0,0,0,6.78,1.17,25.5,25.5,0,0,0,12.05-3.15c.11-.32.23-.69.23-.69a25.58,25.58,0,0,1-10.94,2.83,21.3,21.3,0,0,1-5.61-.71C19.57,25.43,23,25,26.9,24a15.33,15.33,0,0,0,5.45-2.67,3.56,3.56,0,0,0,1.44-3.14,2.26,2.26,0,0,0-1-1.3,2,2,0,0,0,.38-1.64,2.75,2.75,0,0,0-.43-1.11A3.82,3.82,0,0,0,31.55,13Zm-.5,1.22c.62.54.8.92.5,1.5A9.3,9.3,0,0,0,30.25,15,5.74,5.74,0,0,0,31.05,14.23Zm-.44,2.56a7.67,7.67,0,0,1-2.06,1.1,61.29,61.29,0,0,1-9.06,2.2,58.52,58.52,0,0,0-6.84,1.39,11.18,11.18,0,0,0-3.22,1.35A7.73,7.73,0,0,1,8.08,22c1.78-1.55,5.39-2.43,6.73-2.73,4.21-.94,8.14-1.52,9.75-1.94a24.76,24.76,0,0,0,4.29-1.43A7,7,0,0,1,30.62,16.79Zm-2.26-6.43c.63.42,1.37,1.06,1.45,1.71a21.81,21.81,0,0,0-2.12-.73A2.83,2.83,0,0,0,28.35,10.36Zm-1.66,1.92a18.31,18.31,0,0,1,2.76,1c-.14.2-1,1-1.2.94a28.28,28.28,0,0,0-3.31-.92A6.34,6.34,0,0,0,26.69,12.28ZM6.82,20.85c-1.7-2.4,4.18-4.11,5.29-4.45a55.4,55.4,0,0,1,9.19-1.91,11.13,11.13,0,0,1,5.13.52c-5,1.39-10,1.83-14.75,3.26C7.83,19.43,6.82,20.88,6.82,20.85Zm.85,3.44c-.39-.23-.74-.69-.55-1.12.35.25.64.42,1.06.67C8,24,7.83,24.12,7.67,24.29Zm1.57,3.54c-.58-.48-.84-.88-.83-1.33.39.24.78.47,1.18.68A2,2,0,0,0,9.24,27.82Zm1.39-1.56c-.55-.29-1.08-.61-1.62-.93a4.81,4.81,0,0,1,.83-.64q1.06.51,2.07.93A8.71,8.71,0,0,0,10.63,26.27Zm13.63-3.52c-2,.44-4.79.94-5.69,1.1A34.6,34.6,0,0,0,13.78,25c-.83-.32-1.64-.69-2.4-1.07a16.53,16.53,0,0,1,2.36-.79c4-1,7.57-1.22,12.45-2.56a14.84,14.84,0,0,0,5.12-2.18l.48-.39C33.2,20.23,27.88,22,24.26,22.75Z"/>
    <path class="cls-1" d="M60.83,11.23l-3.38,17.5h4l.48-3h2.76l.48,3h4l-3.38-17.5Zm1.74,10.63.75-5.34.75,5.34Z"/>
    <path class="cls-1"
          d="M76.5,19.76v-.17a4.27,4.27,0,0,0,2.44-4.07,4.41,4.41,0,0,0-4.68-4.59,12.29,12.29,0,0,0-3.45.46l0,3.78A5.14,5.14,0,0,1,73,14.67a1.58,1.58,0,0,1,1.74,1.62A1.76,1.76,0,0,1,73,18H71.27v3.74h1.61c1.35,0,2,.66,2,1.64a1.67,1.67,0,0,1-1.77,1.67,5.72,5.72,0,0,1-2.62-.53l-.07,3.64a6.81,6.81,0,0,0,3.73.91A4.82,4.82,0,0,0,79.2,24,4.06,4.06,0,0,0,76.5,19.76Z"/>
    <polygon class="cls-1"
             points="81.05 28.73 84.99 28.74 84.99 15.44 87.87 15.44 87.87 28.73 91.81 28.73 91.81 11.23 81.05 11.23 81.05 28.73"/>
    <path class="cls-1"
          d="M99.34,11.23H94.07v17.5H98V23h1.32c3.91,0,5.11-3.61,5.11-5.91S103.07,11.23,99.34,11.23ZM99,19.11H98v-4H99c.9,0,1.46.55,1.46,2C100.41,19,99.46,19.11,99,19.11Z"/>
    <path class="cls-1"
          d="M111.75,11c-4.68,0-6.25,4.49-6.25,9s1.58,9,6.25,9S118,24.45,118,20,116.43,11,111.75,11Zm0,13.74c-1.39,0-2.11-1.67-2.11-4.76s.72-4.76,2.11-4.76,2.11,1.67,2.11,4.76S113.15,24.72,111.75,24.72Z"/>
    <path class="cls-1"
          d="M139.76,17.75h-.7V15.43h5.22v-4.2h-9.08v17.5h4.71c1,0,5.29-.44,5.29-5.73C145.21,18.52,141.89,17.75,139.76,17.75Zm-.13,7.49h-.58v-4h.58c.46,0,1.71,0,1.71,1.82S140.09,25.23,139.63,25.23Z"/>
    <polygon class="cls-1"
             points="166.02 17.53 163.26 17.53 163.26 11.23 159.4 11.23 159.4 28.73 163.26 28.73 163.26 21.73 166.02 21.73 166.02 28.73 169.88 28.73 169.88 11.23 166.02 11.23 166.02 17.53"/>
    <polygon class="cls-1"
             points="180.56 19.54 183.58 11.23 179.38 11.23 177.17 17.53 176.33 17.53 176.33 11.23 172.47 11.23 172.47 28.73 176.33 28.73 176.33 21.7 177.24 21.7 179.46 28.73 184 28.73 180.56 19.54"/>
    <polygon class="cls-1" points="57.9 11.23 49.81 11.23 49.81 28.73 53.83 28.74 53.83 15.6 57.9 15.6 57.9 11.23"/>
    <polygon class="cls-1"
             points="126.21 15.36 123.25 11.23 119.9 11.23 119.9 28.73 123.85 28.74 123.85 18.06 126.21 21.12 128.59 18.06 128.59 28.73 132.53 28.73 132.53 11.23 129.19 11.23 126.21 15.36"/>
    <path class="cls-1" d="M149.36,11.26,146,28.76h4l.48-3h2.76l.48,3h4l-3.38-17.51Zm1.74,10.63.75-5.34.74,5.34Z"/>
</svg>
